%TF.GenerationSoftware,KiCad,Pcbnew,(6.0.4-0)*%
%TF.CreationDate,2022-03-28T18:44:13+01:00*%
%TF.ProjectId,SevenSegmentModule,53657665-6e53-4656-976d-656e744d6f64,rev?*%
%TF.SameCoordinates,Original*%
%TF.FileFunction,Copper,L1,Top*%
%TF.FilePolarity,Positive*%
%FSLAX46Y46*%
G04 Gerber Fmt 4.6, Leading zero omitted, Abs format (unit mm)*
G04 Created by KiCad (PCBNEW (6.0.4-0)) date 2022-03-28 18:44:13*
%MOMM*%
%LPD*%
G01*
G04 APERTURE LIST*
G04 Aperture macros list*
%AMRoundRect*
0 Rectangle with rounded corners*
0 $1 Rounding radius*
0 $2 $3 $4 $5 $6 $7 $8 $9 X,Y pos of 4 corners*
0 Add a 4 corners polygon primitive as box body*
4,1,4,$2,$3,$4,$5,$6,$7,$8,$9,$2,$3,0*
0 Add four circle primitives for the rounded corners*
1,1,$1+$1,$2,$3*
1,1,$1+$1,$4,$5*
1,1,$1+$1,$6,$7*
1,1,$1+$1,$8,$9*
0 Add four rect primitives between the rounded corners*
20,1,$1+$1,$2,$3,$4,$5,0*
20,1,$1+$1,$4,$5,$6,$7,0*
20,1,$1+$1,$6,$7,$8,$9,0*
20,1,$1+$1,$8,$9,$2,$3,0*%
G04 Aperture macros list end*
%TA.AperFunction,ComponentPad*%
%ADD10R,1.700000X1.700000*%
%TD*%
%TA.AperFunction,ComponentPad*%
%ADD11O,1.700000X1.700000*%
%TD*%
%TA.AperFunction,ComponentPad*%
%ADD12C,1.524000*%
%TD*%
%TA.AperFunction,SMDPad,CuDef*%
%ADD13RoundRect,0.250000X0.450000X-0.262500X0.450000X0.262500X-0.450000X0.262500X-0.450000X-0.262500X0*%
%TD*%
%TA.AperFunction,ComponentPad*%
%ADD14R,2.600000X2.600000*%
%TD*%
%TA.AperFunction,ComponentPad*%
%ADD15C,2.600000*%
%TD*%
%TA.AperFunction,SMDPad,CuDef*%
%ADD16RoundRect,0.225000X0.225000X0.250000X-0.225000X0.250000X-0.225000X-0.250000X0.225000X-0.250000X0*%
%TD*%
%TA.AperFunction,SMDPad,CuDef*%
%ADD17RoundRect,0.150000X0.150000X-0.875000X0.150000X0.875000X-0.150000X0.875000X-0.150000X-0.875000X0*%
%TD*%
%TA.AperFunction,ViaPad*%
%ADD18C,0.800000*%
%TD*%
%TA.AperFunction,Conductor*%
%ADD19C,0.250000*%
%TD*%
%TA.AperFunction,Conductor*%
%ADD20C,1.000000*%
%TD*%
%TA.AperFunction,Conductor*%
%ADD21C,5.000000*%
%TD*%
G04 APERTURE END LIST*
D10*
%TO.P,J4,1,Pin_1*%
%TO.N,+3V3*%
X139192000Y-99568000D03*
D11*
%TO.P,J4,2,Pin_2*%
%TO.N,SER_OUT*%
X139192000Y-97028000D03*
%TO.P,J4,3,Pin_3*%
%TO.N,G*%
X139192000Y-94488000D03*
%TO.P,J4,4,Pin_4*%
%TO.N,SRCLR*%
X139192000Y-91948000D03*
%TO.P,J4,5,Pin_5*%
%TO.N,SRCK*%
X139192000Y-89408000D03*
%TO.P,J4,6,Pin_6*%
%TO.N,RCLK*%
X139192000Y-86868000D03*
%TD*%
D10*
%TO.P,J1,1,Pin_1*%
%TO.N,RCLK*%
X190500000Y-86868000D03*
D11*
%TO.P,J1,2,Pin_2*%
%TO.N,SRCK*%
X190500000Y-89408000D03*
%TO.P,J1,3,Pin_3*%
%TO.N,SRCLR*%
X190500000Y-91948000D03*
%TO.P,J1,4,Pin_4*%
%TO.N,G*%
X190500000Y-94488000D03*
%TO.P,J1,5,Pin_5*%
%TO.N,SER_IN*%
X190500000Y-97028000D03*
%TO.P,J1,6,Pin_6*%
%TO.N,+3V3*%
X190500000Y-99568000D03*
%TD*%
D12*
%TO.P,U2,16,DP-*%
%TO.N,Net-(U1-Pad4)*%
X148082000Y-83820000D03*
%TO.P,U2,15,DP+*%
%TO.N,Net-(R1-Pad1)*%
X148082000Y-81280000D03*
%TO.P,U2,14,G-*%
%TO.N,Net-(U1-Pad5)*%
X181102000Y-83820000D03*
%TO.P,U2,13,G+*%
%TO.N,Net-(R2-Pad1)*%
X181102000Y-81280000D03*
%TO.P,U2,12,F-*%
%TO.N,Net-(U1-Pad6)*%
X178562000Y-83820000D03*
%TO.P,U2,11,F+*%
%TO.N,Net-(R3-Pad1)*%
X178562000Y-81280000D03*
%TO.P,U2,10,E-*%
%TO.N,Net-(U1-Pad7)*%
X176022000Y-83820000D03*
%TO.P,U2,9,E+*%
%TO.N,Net-(R4-Pad1)*%
X176022000Y-81280000D03*
%TO.P,U2,8,D-*%
%TO.N,Net-(U1-Pad14)*%
X173482000Y-83820000D03*
%TO.P,U2,7,D+*%
%TO.N,Net-(R5-Pad1)*%
X173482000Y-81280000D03*
%TO.P,U2,6,C-*%
%TO.N,Net-(U1-Pad15)*%
X170942000Y-83820000D03*
%TO.P,U2,5,C+*%
%TO.N,Net-(R6-Pad1)*%
X170942000Y-81280000D03*
%TO.P,U2,4,B-*%
%TO.N,Net-(U1-Pad16)*%
X168402000Y-83820000D03*
%TO.P,U2,3,B+*%
%TO.N,Net-(R7-Pad1)*%
X168402000Y-81280000D03*
%TO.P,U2,2,A-*%
%TO.N,Net-(U1-Pad17)*%
X165862000Y-83820000D03*
%TO.P,U2,1,A+*%
%TO.N,Net-(R8-Pad1)*%
X165862000Y-81280000D03*
%TD*%
D13*
%TO.P,R7,1*%
%TO.N,Net-(R7-Pad1)*%
X168296170Y-78194000D03*
%TO.P,R7,2*%
%TO.N,+5V*%
X168296170Y-76369000D03*
%TD*%
D14*
%TO.P,J5,1,Pin_1*%
%TO.N,+5V*%
X139700000Y-74676000D03*
D15*
%TO.P,J5,2,Pin_2*%
%TO.N,GND*%
X139700000Y-79756000D03*
%TD*%
D13*
%TO.P,R6,1*%
%TO.N,Net-(R6-Pad1)*%
X170857336Y-78194000D03*
%TO.P,R6,2*%
%TO.N,+5V*%
X170857336Y-76369000D03*
%TD*%
D16*
%TO.P,C1,1*%
%TO.N,+3V3*%
X162332000Y-100330000D03*
%TO.P,C1,2*%
%TO.N,GND*%
X160782000Y-100330000D03*
%TD*%
D13*
%TO.P,R4,1*%
%TO.N,Net-(R4-Pad1)*%
X175979668Y-78194000D03*
%TO.P,R4,2*%
%TO.N,+5V*%
X175979668Y-76369000D03*
%TD*%
%TO.P,R2,1*%
%TO.N,Net-(R2-Pad1)*%
X181102000Y-78194000D03*
%TO.P,R2,2*%
%TO.N,+5V*%
X181102000Y-76369000D03*
%TD*%
%TO.P,R1,1*%
%TO.N,Net-(R1-Pad1)*%
X148082000Y-78232000D03*
%TO.P,R1,2*%
%TO.N,+5V*%
X148082000Y-76407000D03*
%TD*%
D14*
%TO.P,J2,1,Pin_1*%
%TO.N,GND*%
X189992000Y-79756000D03*
D15*
%TO.P,J2,2,Pin_2*%
%TO.N,+5V*%
X189992000Y-74676000D03*
%TD*%
D13*
%TO.P,R8,2*%
%TO.N,+5V*%
X165862000Y-76407000D03*
%TO.P,R8,1*%
%TO.N,Net-(R8-Pad1)*%
X165862000Y-78232000D03*
%TD*%
%TO.P,R3,1*%
%TO.N,Net-(R3-Pad1)*%
X178540834Y-78194000D03*
%TO.P,R3,2*%
%TO.N,+5V*%
X178540834Y-76369000D03*
%TD*%
%TO.P,R5,1*%
%TO.N,Net-(R5-Pad1)*%
X173418502Y-78194000D03*
%TO.P,R5,2*%
%TO.N,+5V*%
X173418502Y-76369000D03*
%TD*%
D17*
%TO.P,TPIC6595,1,PGND*%
%TO.N,GND*%
X161163000Y-98171000D03*
%TO.P,TPIC6595,2,VCC*%
%TO.N,+3V3*%
X162433000Y-98171000D03*
%TO.P,TPIC6595,3,SER_IN*%
%TO.N,SER_IN*%
X163703000Y-98171000D03*
%TO.P,TPIC6595,4,DRAIN0*%
%TO.N,Net-(U1-Pad4)*%
X164973000Y-98171000D03*
%TO.P,TPIC6595,5,DRAIN1*%
%TO.N,Net-(U1-Pad5)*%
X166243000Y-98171000D03*
%TO.P,TPIC6595,6,DRAIN2*%
%TO.N,Net-(U1-Pad6)*%
X167513000Y-98171000D03*
%TO.P,TPIC6595,7,DRAIN3*%
%TO.N,Net-(U1-Pad7)*%
X168783000Y-98171000D03*
%TO.P,TPIC6595,8,~{SRCLR}*%
%TO.N,SRCLR*%
X170053000Y-98171000D03*
%TO.P,TPIC6595,9,~{G}*%
%TO.N,G*%
X171323000Y-98171000D03*
%TO.P,TPIC6595,10,PGND*%
%TO.N,GND*%
X172593000Y-98171000D03*
%TO.P,TPIC6595,11,PGND*%
X172593000Y-88871000D03*
%TO.P,TPIC6595,12,RCLK*%
%TO.N,RCLK*%
X171323000Y-88871000D03*
%TO.P,TPIC6595,13,SRCK*%
%TO.N,SRCK*%
X170053000Y-88871000D03*
%TO.P,TPIC6595,14,DRAIN4*%
%TO.N,Net-(U1-Pad14)*%
X168783000Y-88871000D03*
%TO.P,TPIC6595,15,DRAIN5*%
%TO.N,Net-(U1-Pad15)*%
X167513000Y-88871000D03*
%TO.P,TPIC6595,16,DRAIN6*%
%TO.N,Net-(U1-Pad16)*%
X166243000Y-88871000D03*
%TO.P,TPIC6595,17,DRAIN7*%
%TO.N,Net-(U1-Pad17)*%
X164973000Y-88871000D03*
%TO.P,TPIC6595,18,SER_OUT*%
%TO.N,SER_OUT*%
X163703000Y-88871000D03*
%TO.P,TPIC6595,19,LGND*%
%TO.N,GND*%
X162433000Y-88871000D03*
%TO.P,TPIC6595,20,PGND*%
X161163000Y-88871000D03*
%TD*%
D18*
%TO.N,GND*%
X159766000Y-87376000D03*
X173736000Y-87884000D03*
X173990000Y-98171000D03*
X158877000Y-98552000D03*
%TO.N,SRCLR*%
X158877000Y-92202000D03*
X170967187Y-96575311D03*
%TO.N,G*%
X170434000Y-100113500D03*
X158496000Y-93345000D03*
%TO.N,SRCK*%
X159893000Y-91948000D03*
%TO.N,RCLK*%
X160528000Y-90805000D03*
X171450000Y-90805000D03*
X175006000Y-92329000D03*
%TO.N,SRCK*%
X170180000Y-90805000D03*
X174498000Y-93472000D03*
%TD*%
D19*
%TO.N,Net-(U1-Pad6)*%
X169418000Y-99232072D02*
X169129552Y-99520520D01*
D20*
%TO.N,GND*%
X161163000Y-88773000D02*
X159766000Y-87376000D01*
X161163000Y-88871000D02*
X161163000Y-88773000D01*
X172749000Y-88871000D02*
X173736000Y-87884000D01*
X172593000Y-88871000D02*
X172749000Y-88871000D01*
X172593000Y-98171000D02*
X173990000Y-98171000D01*
X159258000Y-98171000D02*
X158877000Y-98552000D01*
X161163000Y-98171000D02*
X159258000Y-98171000D01*
X161163000Y-98171000D02*
X161163000Y-99949000D01*
X161163000Y-99949000D02*
X160782000Y-100330000D01*
%TO.N,+3V3*%
X188214000Y-101854000D02*
X162433000Y-101854000D01*
X162433000Y-101854000D02*
X141478000Y-101854000D01*
X162433000Y-98171000D02*
X162433000Y-101854000D01*
D19*
%TO.N,SRCLR*%
X139192000Y-91948000D02*
X140042000Y-91098000D01*
X140042000Y-91098000D02*
X157773000Y-91098000D01*
X157773000Y-91098000D02*
X158877000Y-92202000D01*
%TO.N,G*%
X171323000Y-99224500D02*
X171323000Y-98171000D01*
X170434000Y-100113500D02*
X171323000Y-99224500D01*
X156503000Y-95338000D02*
X158496000Y-93345000D01*
X139192000Y-94488000D02*
X140042000Y-95338000D01*
X140042000Y-95338000D02*
X156503000Y-95338000D01*
%TO.N,SRCK*%
X157353000Y-89408000D02*
X159893000Y-91948000D01*
X139192000Y-89408000D02*
X157353000Y-89408000D01*
%TO.N,RCLK*%
X156591000Y-86868000D02*
X160528000Y-90805000D01*
X139192000Y-86868000D02*
X156591000Y-86868000D01*
%TO.N,Net-(U1-Pad6)*%
X169418000Y-97261040D02*
X169418000Y-99232072D01*
X169129552Y-99520520D02*
X167973520Y-99520520D01*
X167973520Y-99520520D02*
X167513000Y-99060000D01*
X167513000Y-99060000D02*
X167513000Y-98171000D01*
X169418000Y-96139000D02*
X169418000Y-97261040D01*
X178562000Y-83820000D02*
X178562000Y-86995000D01*
X178562000Y-86995000D02*
X169418000Y-96139000D01*
%TO.N,SRCK*%
X190500000Y-89408000D02*
X179451000Y-89408000D01*
X179451000Y-89408000D02*
X175387000Y-93472000D01*
X175387000Y-93472000D02*
X174498000Y-93472000D01*
%TO.N,RCLK*%
X175005641Y-92328641D02*
X175006000Y-92329000D01*
X171450000Y-90805000D02*
X171450000Y-88998000D01*
X171450000Y-88998000D02*
X171323000Y-88871000D01*
X180466283Y-86868000D02*
X175005641Y-92328641D01*
X190500000Y-86868000D02*
X180466283Y-86868000D01*
%TO.N,SRCK*%
X170180000Y-88998000D02*
X170053000Y-88871000D01*
X170180000Y-90805000D02*
X170180000Y-88998000D01*
%TO.N,SRCLR*%
X190500000Y-91948000D02*
X185674000Y-96774000D01*
X185674000Y-96774000D02*
X171023928Y-96774000D01*
X170053000Y-97744928D02*
X170053000Y-98171000D01*
X171023928Y-96774000D02*
X170053000Y-97744928D01*
%TO.N,G*%
X184599520Y-100388480D02*
X172339000Y-100388480D01*
X190500000Y-94488000D02*
X184599520Y-100388480D01*
X172339000Y-100388480D02*
X171323000Y-99372480D01*
X171323000Y-99372480D02*
X171323000Y-98171000D01*
%TO.N,SER_IN*%
X163703000Y-98171000D02*
X163703000Y-98679000D01*
X163703000Y-98679000D02*
X165862000Y-100838000D01*
X165862000Y-100838000D02*
X186690000Y-100838000D01*
X186690000Y-100838000D02*
X190500000Y-97028000D01*
D20*
%TO.N,+3V3*%
X190500000Y-99568000D02*
X188214000Y-101854000D01*
X141478000Y-101854000D02*
X139192000Y-99568000D01*
D19*
%TO.N,Net-(U1-Pad5)*%
X181102000Y-83820000D02*
X180015489Y-82733489D01*
X180015489Y-82733489D02*
X175571951Y-82733489D01*
X175571951Y-82733489D02*
X174568511Y-83736929D01*
X174568511Y-83736929D02*
X174568511Y-84270049D01*
X174568511Y-84270049D02*
X171335560Y-87503000D01*
X171335560Y-87503000D02*
X169724928Y-87503000D01*
X169724928Y-87503000D02*
X169407520Y-87820408D01*
X169407520Y-87820408D02*
X169407520Y-93752552D01*
X169407520Y-93752552D02*
X166243000Y-96917072D01*
%TO.N,Net-(U1-Pad4)*%
X148082000Y-83820000D02*
X160348072Y-83820000D01*
X164973000Y-96520000D02*
X164973000Y-98171000D01*
X160348072Y-83820000D02*
X164348480Y-87820408D01*
X164348480Y-87820408D02*
X164348480Y-95895480D01*
X164348480Y-95895480D02*
X164973000Y-96520000D01*
%TO.N,SER_OUT*%
X139192000Y-97028000D02*
X155972072Y-97028000D01*
X155972072Y-97028000D02*
X163703000Y-89297072D01*
X163703000Y-89297072D02*
X163703000Y-88871000D01*
%TO.N,Net-(U1-Pad5)*%
X166243000Y-96917072D02*
X166243000Y-98171000D01*
%TO.N,Net-(U1-Pad7)*%
X176022000Y-83820000D02*
X176022000Y-88011000D01*
X168783000Y-95250000D02*
X168783000Y-98171000D01*
X176022000Y-88011000D02*
X168783000Y-95250000D01*
%TO.N,Net-(U1-Pad14)*%
X171629928Y-85598000D02*
X170561000Y-85598000D01*
X173482000Y-83820000D02*
X173407928Y-83820000D01*
X173407928Y-83820000D02*
X171629928Y-85598000D01*
X168783000Y-87376000D02*
X168783000Y-88871000D01*
X170561000Y-85598000D02*
X168783000Y-87376000D01*
%TO.N,Net-(U1-Pad15)*%
X170942000Y-83820000D02*
X167513000Y-87249000D01*
X167513000Y-87249000D02*
X167513000Y-88871000D01*
%TO.N,Net-(U1-Pad16)*%
X168402000Y-83820000D02*
X166243000Y-85979000D01*
X166243000Y-85979000D02*
X166243000Y-88871000D01*
%TO.N,Net-(U1-Pad17)*%
X165862000Y-83820000D02*
X164973000Y-84709000D01*
X164973000Y-84709000D02*
X164973000Y-88871000D01*
D20*
%TO.N,GND*%
X161163000Y-88871000D02*
X162433000Y-88871000D01*
D19*
%TO.N,Net-(R2-Pad1)*%
X181102000Y-78194000D02*
X181102000Y-81280000D01*
%TO.N,Net-(R3-Pad1)*%
X178540834Y-78194000D02*
X178562000Y-78215166D01*
X178562000Y-78215166D02*
X178562000Y-81280000D01*
%TO.N,Net-(R4-Pad1)*%
X175979668Y-78194000D02*
X176022000Y-78236332D01*
X176022000Y-78236332D02*
X176022000Y-81280000D01*
%TO.N,Net-(R5-Pad1)*%
X173418502Y-78194000D02*
X173482000Y-78257498D01*
X173482000Y-78257498D02*
X173482000Y-81280000D01*
%TO.N,Net-(R6-Pad1)*%
X170857336Y-78194000D02*
X170942000Y-78278664D01*
X170942000Y-78278664D02*
X170942000Y-81280000D01*
%TO.N,Net-(R7-Pad1)*%
X168296170Y-78194000D02*
X168402000Y-78299830D01*
X168402000Y-78299830D02*
X168402000Y-81280000D01*
%TO.N,Net-(R8-Pad1)*%
X165862000Y-78232000D02*
X165862000Y-81280000D01*
%TO.N,Net-(R1-Pad1)*%
X148082000Y-78232000D02*
X148082000Y-81280000D01*
D21*
%TO.N,+5V*%
X189954980Y-74638980D02*
X139737020Y-74638980D01*
X139737020Y-74638980D02*
X139700000Y-74676000D01*
X189992000Y-74676000D02*
X189954980Y-74638980D01*
%TD*%
M02*
