M48
INCH
T1C0.0157
T2C0.0300
T3C0.0394
T4C0.0512
T5C0.1260
%
G90
G05
T1
X6.24Y-3.675
X6.255Y-3.63
X6.255Y-3.88
X6.29Y-3.44
X6.295Y-3.62
X6.32Y-3.575
X6.7Y-3.575
X6.71Y-3.9415
X6.731Y-3.8022
X6.75Y-3.575
X6.84Y-3.46
X6.85Y-3.865
X6.87Y-3.68
X6.89Y-3.635
T2
X5.83Y-3.2
X5.83Y-3.3
X6.53Y-3.2
X6.53Y-3.3
X6.63Y-3.2
X6.63Y-3.3
X6.73Y-3.2
X6.73Y-3.3
X6.83Y-3.2
X6.83Y-3.3
X6.93Y-3.2
X6.93Y-3.3
X7.03Y-3.2
X7.03Y-3.3
X7.13Y-3.2
X7.13Y-3.3
T3
X5.48Y-3.42
X5.48Y-3.52
X5.48Y-3.62
X5.48Y-3.72
X5.48Y-3.82
X5.48Y-3.92
X7.5Y-3.42
X7.5Y-3.52
X7.5Y-3.62
X7.5Y-3.72
X7.5Y-3.82
X7.5Y-3.92
T4
X5.5Y-2.94
X5.5Y-3.14
X7.48Y-2.94
X7.48Y-3.14
T5
X5.87Y-3.665
X7.12Y-3.665
T0
M30
