%TF.GenerationSoftware,KiCad,Pcbnew,(6.0.4-0)*%
%TF.CreationDate,2022-03-28T18:44:13+01:00*%
%TF.ProjectId,SevenSegmentModule,53657665-6e53-4656-976d-656e744d6f64,rev?*%
%TF.SameCoordinates,Original*%
%TF.FileFunction,Legend,Bot*%
%TF.FilePolarity,Positive*%
%FSLAX46Y46*%
G04 Gerber Fmt 4.6, Leading zero omitted, Abs format (unit mm)*
G04 Created by KiCad (PCBNEW (6.0.4-0)) date 2022-03-28 18:44:13*
%MOMM*%
%LPD*%
G01*
G04 APERTURE LIST*
%ADD10C,0.150000*%
G04 APERTURE END LIST*
D10*
X158948190Y-77280761D02*
X158805333Y-77328380D01*
X158567238Y-77328380D01*
X158472000Y-77280761D01*
X158424380Y-77233142D01*
X158376761Y-77137904D01*
X158376761Y-77042666D01*
X158424380Y-76947428D01*
X158472000Y-76899809D01*
X158567238Y-76852190D01*
X158757714Y-76804571D01*
X158852952Y-76756952D01*
X158900571Y-76709333D01*
X158948190Y-76614095D01*
X158948190Y-76518857D01*
X158900571Y-76423619D01*
X158852952Y-76376000D01*
X158757714Y-76328380D01*
X158519619Y-76328380D01*
X158376761Y-76376000D01*
X157567238Y-77280761D02*
X157662476Y-77328380D01*
X157852952Y-77328380D01*
X157948190Y-77280761D01*
X157995809Y-77185523D01*
X157995809Y-76804571D01*
X157948190Y-76709333D01*
X157852952Y-76661714D01*
X157662476Y-76661714D01*
X157567238Y-76709333D01*
X157519619Y-76804571D01*
X157519619Y-76899809D01*
X157995809Y-76995047D01*
X157186285Y-76661714D02*
X156948190Y-77328380D01*
X156710095Y-76661714D01*
X155948190Y-77280761D02*
X156043428Y-77328380D01*
X156233904Y-77328380D01*
X156329142Y-77280761D01*
X156376761Y-77185523D01*
X156376761Y-76804571D01*
X156329142Y-76709333D01*
X156233904Y-76661714D01*
X156043428Y-76661714D01*
X155948190Y-76709333D01*
X155900571Y-76804571D01*
X155900571Y-76899809D01*
X156376761Y-76995047D01*
X155472000Y-76661714D02*
X155472000Y-77328380D01*
X155472000Y-76756952D02*
X155424380Y-76709333D01*
X155329142Y-76661714D01*
X155186285Y-76661714D01*
X155091047Y-76709333D01*
X155043428Y-76804571D01*
X155043428Y-77328380D01*
X159972000Y-78890761D02*
X159829142Y-78938380D01*
X159591047Y-78938380D01*
X159495809Y-78890761D01*
X159448190Y-78843142D01*
X159400571Y-78747904D01*
X159400571Y-78652666D01*
X159448190Y-78557428D01*
X159495809Y-78509809D01*
X159591047Y-78462190D01*
X159781523Y-78414571D01*
X159876761Y-78366952D01*
X159924380Y-78319333D01*
X159972000Y-78224095D01*
X159972000Y-78128857D01*
X159924380Y-78033619D01*
X159876761Y-77986000D01*
X159781523Y-77938380D01*
X159543428Y-77938380D01*
X159400571Y-77986000D01*
X158591047Y-78890761D02*
X158686285Y-78938380D01*
X158876761Y-78938380D01*
X158972000Y-78890761D01*
X159019619Y-78795523D01*
X159019619Y-78414571D01*
X158972000Y-78319333D01*
X158876761Y-78271714D01*
X158686285Y-78271714D01*
X158591047Y-78319333D01*
X158543428Y-78414571D01*
X158543428Y-78509809D01*
X159019619Y-78605047D01*
X157686285Y-78271714D02*
X157686285Y-79081238D01*
X157733904Y-79176476D01*
X157781523Y-79224095D01*
X157876761Y-79271714D01*
X158019619Y-79271714D01*
X158114857Y-79224095D01*
X157686285Y-78890761D02*
X157781523Y-78938380D01*
X157972000Y-78938380D01*
X158067238Y-78890761D01*
X158114857Y-78843142D01*
X158162476Y-78747904D01*
X158162476Y-78462190D01*
X158114857Y-78366952D01*
X158067238Y-78319333D01*
X157972000Y-78271714D01*
X157781523Y-78271714D01*
X157686285Y-78319333D01*
X157210095Y-78938380D02*
X157210095Y-78271714D01*
X157210095Y-78366952D02*
X157162476Y-78319333D01*
X157067238Y-78271714D01*
X156924380Y-78271714D01*
X156829142Y-78319333D01*
X156781523Y-78414571D01*
X156781523Y-78938380D01*
X156781523Y-78414571D02*
X156733904Y-78319333D01*
X156638666Y-78271714D01*
X156495809Y-78271714D01*
X156400571Y-78319333D01*
X156352952Y-78414571D01*
X156352952Y-78938380D01*
X155495809Y-78890761D02*
X155591047Y-78938380D01*
X155781523Y-78938380D01*
X155876761Y-78890761D01*
X155924380Y-78795523D01*
X155924380Y-78414571D01*
X155876761Y-78319333D01*
X155781523Y-78271714D01*
X155591047Y-78271714D01*
X155495809Y-78319333D01*
X155448190Y-78414571D01*
X155448190Y-78509809D01*
X155924380Y-78605047D01*
X155019619Y-78271714D02*
X155019619Y-78938380D01*
X155019619Y-78366952D02*
X154972000Y-78319333D01*
X154876761Y-78271714D01*
X154733904Y-78271714D01*
X154638666Y-78319333D01*
X154591047Y-78414571D01*
X154591047Y-78938380D01*
X154257714Y-78271714D02*
X153876761Y-78271714D01*
X154114857Y-77938380D02*
X154114857Y-78795523D01*
X154067238Y-78890761D01*
X153972000Y-78938380D01*
X153876761Y-78938380D01*
X161305333Y-80548380D02*
X161305333Y-79548380D01*
X160972000Y-80262666D01*
X160638666Y-79548380D01*
X160638666Y-80548380D01*
X160019619Y-80548380D02*
X160114857Y-80500761D01*
X160162476Y-80453142D01*
X160210095Y-80357904D01*
X160210095Y-80072190D01*
X160162476Y-79976952D01*
X160114857Y-79929333D01*
X160019619Y-79881714D01*
X159876761Y-79881714D01*
X159781523Y-79929333D01*
X159733904Y-79976952D01*
X159686285Y-80072190D01*
X159686285Y-80357904D01*
X159733904Y-80453142D01*
X159781523Y-80500761D01*
X159876761Y-80548380D01*
X160019619Y-80548380D01*
X158829142Y-80548380D02*
X158829142Y-79548380D01*
X158829142Y-80500761D02*
X158924380Y-80548380D01*
X159114857Y-80548380D01*
X159210095Y-80500761D01*
X159257714Y-80453142D01*
X159305333Y-80357904D01*
X159305333Y-80072190D01*
X159257714Y-79976952D01*
X159210095Y-79929333D01*
X159114857Y-79881714D01*
X158924380Y-79881714D01*
X158829142Y-79929333D01*
X157924380Y-79881714D02*
X157924380Y-80548380D01*
X158352952Y-79881714D02*
X158352952Y-80405523D01*
X158305333Y-80500761D01*
X158210095Y-80548380D01*
X158067238Y-80548380D01*
X157972000Y-80500761D01*
X157924380Y-80453142D01*
X157305333Y-80548380D02*
X157400571Y-80500761D01*
X157448190Y-80405523D01*
X157448190Y-79548380D01*
X156543428Y-80500761D02*
X156638666Y-80548380D01*
X156829142Y-80548380D01*
X156924380Y-80500761D01*
X156972000Y-80405523D01*
X156972000Y-80024571D01*
X156924380Y-79929333D01*
X156829142Y-79881714D01*
X156638666Y-79881714D01*
X156543428Y-79929333D01*
X156495809Y-80024571D01*
X156495809Y-80119809D01*
X156972000Y-80215047D01*
X155400571Y-79881714D02*
X155162476Y-80548380D01*
X154924380Y-79881714D01*
X154019619Y-80548380D02*
X154591047Y-80548380D01*
X154305333Y-80548380D02*
X154305333Y-79548380D01*
X154400571Y-79691238D01*
X154495809Y-79786476D01*
X154591047Y-79834095D01*
X153591047Y-80453142D02*
X153543428Y-80500761D01*
X153591047Y-80548380D01*
X153638666Y-80500761D01*
X153591047Y-80453142D01*
X153591047Y-80548380D01*
X152924380Y-79548380D02*
X152829142Y-79548380D01*
X152733904Y-79596000D01*
X152686285Y-79643619D01*
X152638666Y-79738857D01*
X152591047Y-79929333D01*
X152591047Y-80167428D01*
X152638666Y-80357904D01*
X152686285Y-80453142D01*
X152733904Y-80500761D01*
X152829142Y-80548380D01*
X152924380Y-80548380D01*
X153019619Y-80500761D01*
X153067238Y-80453142D01*
X153114857Y-80357904D01*
X153162476Y-80167428D01*
X153162476Y-79929333D01*
X153114857Y-79738857D01*
X153067238Y-79643619D01*
X153019619Y-79596000D01*
X152924380Y-79548380D01*
X165496904Y-79462333D02*
X165973095Y-79462333D01*
X165401666Y-79176619D02*
X165735000Y-80176619D01*
X166068333Y-79176619D01*
X173093095Y-79176619D02*
X173093095Y-80176619D01*
X173331190Y-80176619D01*
X173474047Y-80129000D01*
X173569285Y-80033761D01*
X173616904Y-79938523D01*
X173664523Y-79748047D01*
X173664523Y-79605190D01*
X173616904Y-79414714D01*
X173569285Y-79319476D01*
X173474047Y-79224238D01*
X173331190Y-79176619D01*
X173093095Y-79176619D01*
X178577857Y-79700428D02*
X178244523Y-79700428D01*
X178244523Y-79176619D02*
X178244523Y-80176619D01*
X178720714Y-80176619D01*
X171124523Y-79271857D02*
X171076904Y-79224238D01*
X170934047Y-79176619D01*
X170838809Y-79176619D01*
X170695952Y-79224238D01*
X170600714Y-79319476D01*
X170553095Y-79414714D01*
X170505476Y-79605190D01*
X170505476Y-79748047D01*
X170553095Y-79938523D01*
X170600714Y-80033761D01*
X170695952Y-80129000D01*
X170838809Y-80176619D01*
X170934047Y-80176619D01*
X171076904Y-80129000D01*
X171124523Y-80081380D01*
X168346428Y-79700428D02*
X168489285Y-79652809D01*
X168536904Y-79605190D01*
X168584523Y-79509952D01*
X168584523Y-79367095D01*
X168536904Y-79271857D01*
X168489285Y-79224238D01*
X168394047Y-79176619D01*
X168013095Y-79176619D01*
X168013095Y-80176619D01*
X168346428Y-80176619D01*
X168441666Y-80129000D01*
X168489285Y-80081380D01*
X168536904Y-79986142D01*
X168536904Y-79890904D01*
X168489285Y-79795666D01*
X168441666Y-79748047D01*
X168346428Y-79700428D01*
X168013095Y-79700428D01*
X175680714Y-79700428D02*
X176014047Y-79700428D01*
X176156904Y-79176619D02*
X175680714Y-79176619D01*
X175680714Y-80176619D01*
X176156904Y-80176619D01*
X181236904Y-80129000D02*
X181141666Y-80176619D01*
X180998809Y-80176619D01*
X180855952Y-80129000D01*
X180760714Y-80033761D01*
X180713095Y-79938523D01*
X180665476Y-79748047D01*
X180665476Y-79605190D01*
X180713095Y-79414714D01*
X180760714Y-79319476D01*
X180855952Y-79224238D01*
X180998809Y-79176619D01*
X181094047Y-79176619D01*
X181236904Y-79224238D01*
X181284523Y-79271857D01*
X181284523Y-79605190D01*
X181094047Y-79605190D01*
X164337952Y-83764428D02*
X163576047Y-83764428D01*
X164337952Y-81224428D02*
X163576047Y-81224428D01*
X163957000Y-81605380D02*
X163957000Y-80843476D01*
X183133952Y-81224428D02*
X182372047Y-81224428D01*
X182753000Y-81605380D02*
X182753000Y-80843476D01*
X183133952Y-83764428D02*
X182372047Y-83764428D01*
X150494952Y-81224428D02*
X149733047Y-81224428D01*
X150114000Y-81605380D02*
X150114000Y-80843476D01*
X150494952Y-83764428D02*
X149733047Y-83764428D01*
X148716904Y-86177380D02*
X148716904Y-85177380D01*
X148478809Y-85177380D01*
X148335952Y-85225000D01*
X148240714Y-85320238D01*
X148193095Y-85415476D01*
X148145476Y-85605952D01*
X148145476Y-85748809D01*
X148193095Y-85939285D01*
X148240714Y-86034523D01*
X148335952Y-86129761D01*
X148478809Y-86177380D01*
X148716904Y-86177380D01*
X147716904Y-86177380D02*
X147716904Y-85177380D01*
X147335952Y-85177380D01*
X147240714Y-85225000D01*
X147193095Y-85272619D01*
X147145476Y-85367857D01*
X147145476Y-85510714D01*
X147193095Y-85605952D01*
X147240714Y-85653571D01*
X147335952Y-85701190D01*
X147716904Y-85701190D01*
X165623904Y-85431333D02*
X166100095Y-85431333D01*
X165528666Y-85145619D02*
X165862000Y-86145619D01*
X166195333Y-85145619D01*
X178704857Y-85669428D02*
X178371523Y-85669428D01*
X178371523Y-85145619D02*
X178371523Y-86145619D01*
X178847714Y-86145619D01*
X173220095Y-85145619D02*
X173220095Y-86145619D01*
X173458190Y-86145619D01*
X173601047Y-86098000D01*
X173696285Y-86002761D01*
X173743904Y-85907523D01*
X173791523Y-85717047D01*
X173791523Y-85574190D01*
X173743904Y-85383714D01*
X173696285Y-85288476D01*
X173601047Y-85193238D01*
X173458190Y-85145619D01*
X173220095Y-85145619D01*
X171251523Y-85240857D02*
X171203904Y-85193238D01*
X171061047Y-85145619D01*
X170965809Y-85145619D01*
X170822952Y-85193238D01*
X170727714Y-85288476D01*
X170680095Y-85383714D01*
X170632476Y-85574190D01*
X170632476Y-85717047D01*
X170680095Y-85907523D01*
X170727714Y-86002761D01*
X170822952Y-86098000D01*
X170965809Y-86145619D01*
X171061047Y-86145619D01*
X171203904Y-86098000D01*
X171251523Y-86050380D01*
X168473428Y-85669428D02*
X168616285Y-85621809D01*
X168663904Y-85574190D01*
X168711523Y-85478952D01*
X168711523Y-85336095D01*
X168663904Y-85240857D01*
X168616285Y-85193238D01*
X168521047Y-85145619D01*
X168140095Y-85145619D01*
X168140095Y-86145619D01*
X168473428Y-86145619D01*
X168568666Y-86098000D01*
X168616285Y-86050380D01*
X168663904Y-85955142D01*
X168663904Y-85859904D01*
X168616285Y-85764666D01*
X168568666Y-85717047D01*
X168473428Y-85669428D01*
X168140095Y-85669428D01*
X175807714Y-85669428D02*
X176141047Y-85669428D01*
X176283904Y-85145619D02*
X175807714Y-85145619D01*
X175807714Y-86145619D01*
X176283904Y-86145619D01*
X181363904Y-86098000D02*
X181268666Y-86145619D01*
X181125809Y-86145619D01*
X180982952Y-86098000D01*
X180887714Y-86002761D01*
X180840095Y-85907523D01*
X180792476Y-85717047D01*
X180792476Y-85574190D01*
X180840095Y-85383714D01*
X180887714Y-85288476D01*
X180982952Y-85193238D01*
X181125809Y-85145619D01*
X181221047Y-85145619D01*
X181363904Y-85193238D01*
X181411523Y-85240857D01*
X181411523Y-85574190D01*
X181221047Y-85574190D01*
X145216238Y-89863761D02*
X145073381Y-89911380D01*
X144835285Y-89911380D01*
X144740047Y-89863761D01*
X144692428Y-89816142D01*
X144644809Y-89720904D01*
X144644809Y-89625666D01*
X144692428Y-89530428D01*
X144740047Y-89482809D01*
X144835285Y-89435190D01*
X145025762Y-89387571D01*
X145121000Y-89339952D01*
X145168619Y-89292333D01*
X145216238Y-89197095D01*
X145216238Y-89101857D01*
X145168619Y-89006619D01*
X145121000Y-88959000D01*
X145025762Y-88911380D01*
X144787666Y-88911380D01*
X144644809Y-88959000D01*
X143644809Y-89911380D02*
X143978142Y-89435190D01*
X144216238Y-89911380D02*
X144216238Y-88911380D01*
X143835285Y-88911380D01*
X143740047Y-88959000D01*
X143692428Y-89006619D01*
X143644809Y-89101857D01*
X143644809Y-89244714D01*
X143692428Y-89339952D01*
X143740047Y-89387571D01*
X143835285Y-89435190D01*
X144216238Y-89435190D01*
X142644809Y-89816142D02*
X142692428Y-89863761D01*
X142835285Y-89911380D01*
X142930523Y-89911380D01*
X143073381Y-89863761D01*
X143168619Y-89768523D01*
X143216238Y-89673285D01*
X143263857Y-89482809D01*
X143263857Y-89339952D01*
X143216238Y-89149476D01*
X143168619Y-89054238D01*
X143073381Y-88959000D01*
X142930523Y-88911380D01*
X142835285Y-88911380D01*
X142692428Y-88959000D01*
X142644809Y-89006619D01*
X141740047Y-89911380D02*
X142216238Y-89911380D01*
X142216238Y-88911380D01*
X140835285Y-89911380D02*
X141168619Y-89435190D01*
X141406714Y-89911380D02*
X141406714Y-88911380D01*
X141025762Y-88911380D01*
X140930523Y-88959000D01*
X140882904Y-89006619D01*
X140835285Y-89101857D01*
X140835285Y-89244714D01*
X140882904Y-89339952D01*
X140930523Y-89387571D01*
X141025762Y-89435190D01*
X141406714Y-89435190D01*
X143644810Y-87422380D02*
X143978143Y-86946190D01*
X144216238Y-87422380D02*
X144216238Y-86422380D01*
X143835286Y-86422380D01*
X143740048Y-86470000D01*
X143692429Y-86517619D01*
X143644810Y-86612857D01*
X143644810Y-86755714D01*
X143692429Y-86850952D01*
X143740048Y-86898571D01*
X143835286Y-86946190D01*
X144216238Y-86946190D01*
X142644810Y-87327142D02*
X142692429Y-87374761D01*
X142835286Y-87422380D01*
X142930524Y-87422380D01*
X143073381Y-87374761D01*
X143168619Y-87279523D01*
X143216238Y-87184285D01*
X143263857Y-86993809D01*
X143263857Y-86850952D01*
X143216238Y-86660476D01*
X143168619Y-86565238D01*
X143073381Y-86470000D01*
X142930524Y-86422380D01*
X142835286Y-86422380D01*
X142692429Y-86470000D01*
X142644810Y-86517619D01*
X141740048Y-87422380D02*
X142216238Y-87422380D01*
X142216238Y-86422380D01*
X141406714Y-87422380D02*
X141406714Y-86422380D01*
X140835286Y-87422380D02*
X141263857Y-86850952D01*
X140835286Y-86422380D02*
X141406714Y-86993809D01*
X144406714Y-92352761D02*
X144263857Y-92400380D01*
X144025761Y-92400380D01*
X143930523Y-92352761D01*
X143882904Y-92305142D01*
X143835285Y-92209904D01*
X143835285Y-92114666D01*
X143882904Y-92019428D01*
X143930523Y-91971809D01*
X144025761Y-91924190D01*
X144216238Y-91876571D01*
X144311476Y-91828952D01*
X144359095Y-91781333D01*
X144406714Y-91686095D01*
X144406714Y-91590857D01*
X144359095Y-91495619D01*
X144311476Y-91448000D01*
X144216238Y-91400380D01*
X143978142Y-91400380D01*
X143835285Y-91448000D01*
X142835285Y-92400380D02*
X143168619Y-91924190D01*
X143406714Y-92400380D02*
X143406714Y-91400380D01*
X143025761Y-91400380D01*
X142930523Y-91448000D01*
X142882904Y-91495619D01*
X142835285Y-91590857D01*
X142835285Y-91733714D01*
X142882904Y-91828952D01*
X142930523Y-91876571D01*
X143025761Y-91924190D01*
X143406714Y-91924190D01*
X141835285Y-92305142D02*
X141882904Y-92352761D01*
X142025761Y-92400380D01*
X142121000Y-92400380D01*
X142263857Y-92352761D01*
X142359095Y-92257523D01*
X142406714Y-92162285D01*
X142454333Y-91971809D01*
X142454333Y-91828952D01*
X142406714Y-91638476D01*
X142359095Y-91543238D01*
X142263857Y-91448000D01*
X142121000Y-91400380D01*
X142025761Y-91400380D01*
X141882904Y-91448000D01*
X141835285Y-91495619D01*
X141406714Y-92400380D02*
X141406714Y-91400380D01*
X140835285Y-92400380D02*
X141263857Y-91828952D01*
X140835285Y-91400380D02*
X141406714Y-91971809D01*
X141724000Y-93912000D02*
X140724000Y-93912000D01*
X140962095Y-94242000D02*
X141057333Y-94194380D01*
X141200190Y-94194380D01*
X141343047Y-94242000D01*
X141438285Y-94337238D01*
X141485904Y-94432476D01*
X141533523Y-94622952D01*
X141533523Y-94765809D01*
X141485904Y-94956285D01*
X141438285Y-95051523D01*
X141343047Y-95146761D01*
X141200190Y-95194380D01*
X141104952Y-95194380D01*
X140962095Y-95146761D01*
X140914476Y-95099142D01*
X140914476Y-94765809D01*
X141104952Y-94765809D01*
X188714000Y-93912000D02*
X187714000Y-93912000D01*
X187952095Y-94242000D02*
X188047333Y-94194380D01*
X188190190Y-94194380D01*
X188333047Y-94242000D01*
X188428285Y-94337238D01*
X188475904Y-94432476D01*
X188523523Y-94622952D01*
X188523523Y-94765809D01*
X188475904Y-94956285D01*
X188428285Y-95051523D01*
X188333047Y-95146761D01*
X188190190Y-95194380D01*
X188094952Y-95194380D01*
X187952095Y-95146761D01*
X187904476Y-95099142D01*
X187904476Y-94765809D01*
X188094952Y-94765809D01*
X188817095Y-99274380D02*
X188198047Y-99274380D01*
X188531380Y-99655333D01*
X188388523Y-99655333D01*
X188293285Y-99702952D01*
X188245666Y-99750571D01*
X188198047Y-99845809D01*
X188198047Y-100083904D01*
X188245666Y-100179142D01*
X188293285Y-100226761D01*
X188388523Y-100274380D01*
X188674238Y-100274380D01*
X188769476Y-100226761D01*
X188817095Y-100179142D01*
X187912333Y-99274380D02*
X187579000Y-100274380D01*
X187245666Y-99274380D01*
X187007571Y-99274380D02*
X186388523Y-99274380D01*
X186721857Y-99655333D01*
X186579000Y-99655333D01*
X186483761Y-99702952D01*
X186436142Y-99750571D01*
X186388523Y-99845809D01*
X186388523Y-100083904D01*
X186436142Y-100179142D01*
X186483761Y-100226761D01*
X186579000Y-100274380D01*
X186864714Y-100274380D01*
X186959952Y-100226761D01*
X187007571Y-100179142D01*
X188642476Y-89863761D02*
X188499619Y-89911380D01*
X188261523Y-89911380D01*
X188166285Y-89863761D01*
X188118666Y-89816142D01*
X188071047Y-89720904D01*
X188071047Y-89625666D01*
X188118666Y-89530428D01*
X188166285Y-89482809D01*
X188261523Y-89435190D01*
X188452000Y-89387571D01*
X188547238Y-89339952D01*
X188594857Y-89292333D01*
X188642476Y-89197095D01*
X188642476Y-89101857D01*
X188594857Y-89006619D01*
X188547238Y-88959000D01*
X188452000Y-88911380D01*
X188213904Y-88911380D01*
X188071047Y-88959000D01*
X187071047Y-89911380D02*
X187404380Y-89435190D01*
X187642476Y-89911380D02*
X187642476Y-88911380D01*
X187261523Y-88911380D01*
X187166285Y-88959000D01*
X187118666Y-89006619D01*
X187071047Y-89101857D01*
X187071047Y-89244714D01*
X187118666Y-89339952D01*
X187166285Y-89387571D01*
X187261523Y-89435190D01*
X187642476Y-89435190D01*
X186071047Y-89816142D02*
X186118666Y-89863761D01*
X186261523Y-89911380D01*
X186356761Y-89911380D01*
X186499619Y-89863761D01*
X186594857Y-89768523D01*
X186642476Y-89673285D01*
X186690095Y-89482809D01*
X186690095Y-89339952D01*
X186642476Y-89149476D01*
X186594857Y-89054238D01*
X186499619Y-88959000D01*
X186356761Y-88911380D01*
X186261523Y-88911380D01*
X186118666Y-88959000D01*
X186071047Y-89006619D01*
X185166285Y-89911380D02*
X185642476Y-89911380D01*
X185642476Y-88911380D01*
X184832952Y-89911380D02*
X184832952Y-88911380D01*
X184261523Y-89911380D02*
X184690095Y-89339952D01*
X184261523Y-88911380D02*
X184832952Y-89482809D01*
X143478095Y-99147380D02*
X142859047Y-99147380D01*
X143192380Y-99528333D01*
X143049523Y-99528333D01*
X142954285Y-99575952D01*
X142906666Y-99623571D01*
X142859047Y-99718809D01*
X142859047Y-99956904D01*
X142906666Y-100052142D01*
X142954285Y-100099761D01*
X143049523Y-100147380D01*
X143335238Y-100147380D01*
X143430476Y-100099761D01*
X143478095Y-100052142D01*
X142573333Y-99147380D02*
X142240000Y-100147380D01*
X141906666Y-99147380D01*
X141668571Y-99147380D02*
X141049523Y-99147380D01*
X141382857Y-99528333D01*
X141240000Y-99528333D01*
X141144761Y-99575952D01*
X141097142Y-99623571D01*
X141049523Y-99718809D01*
X141049523Y-99956904D01*
X141097142Y-100052142D01*
X141144761Y-100099761D01*
X141240000Y-100147380D01*
X141525714Y-100147380D01*
X141620952Y-100099761D01*
X141668571Y-100052142D01*
X140065000Y-84161380D02*
X139874523Y-84161380D01*
X139779285Y-84209000D01*
X139684047Y-84304238D01*
X139636428Y-84494714D01*
X139636428Y-84828047D01*
X139684047Y-85018523D01*
X139779285Y-85113761D01*
X139874523Y-85161380D01*
X140065000Y-85161380D01*
X140160238Y-85113761D01*
X140255476Y-85018523D01*
X140303095Y-84828047D01*
X140303095Y-84494714D01*
X140255476Y-84304238D01*
X140160238Y-84209000D01*
X140065000Y-84161380D01*
X139207857Y-84161380D02*
X139207857Y-84970904D01*
X139160238Y-85066142D01*
X139112619Y-85113761D01*
X139017380Y-85161380D01*
X138826904Y-85161380D01*
X138731666Y-85113761D01*
X138684047Y-85066142D01*
X138636428Y-84970904D01*
X138636428Y-84161380D01*
X138303095Y-84161380D02*
X137731666Y-84161380D01*
X138017380Y-85161380D02*
X138017380Y-84161380D01*
X190515809Y-85161380D02*
X190515809Y-84161380D01*
X190039619Y-85161380D02*
X190039619Y-84161380D01*
X189468190Y-85161380D01*
X189468190Y-84161380D01*
X184269000Y-80644571D02*
X184316619Y-80739809D01*
X184316619Y-80882666D01*
X184269000Y-81025523D01*
X184173761Y-81120761D01*
X184078523Y-81168380D01*
X183888047Y-81216000D01*
X183745190Y-81216000D01*
X183554714Y-81168380D01*
X183459476Y-81120761D01*
X183364238Y-81025523D01*
X183316619Y-80882666D01*
X183316619Y-80787428D01*
X183364238Y-80644571D01*
X183411857Y-80596952D01*
X183745190Y-80596952D01*
X183745190Y-80787428D01*
X183316619Y-80168380D02*
X184316619Y-80168380D01*
X183316619Y-79596952D01*
X184316619Y-79596952D01*
X183316619Y-79120761D02*
X184316619Y-79120761D01*
X184316619Y-78882666D01*
X184269000Y-78739809D01*
X184173761Y-78644571D01*
X184078523Y-78596952D01*
X183888047Y-78549333D01*
X183745190Y-78549333D01*
X183554714Y-78596952D01*
X183459476Y-78644571D01*
X183364238Y-78739809D01*
X183316619Y-78882666D01*
X183316619Y-79120761D01*
X183697571Y-75835047D02*
X183697571Y-75073142D01*
X183316619Y-75454095D02*
X184078523Y-75454095D01*
X184316619Y-74120761D02*
X184316619Y-74596952D01*
X183840428Y-74644571D01*
X183888047Y-74596952D01*
X183935666Y-74501714D01*
X183935666Y-74263619D01*
X183888047Y-74168380D01*
X183840428Y-74120761D01*
X183745190Y-74073142D01*
X183507095Y-74073142D01*
X183411857Y-74120761D01*
X183364238Y-74168380D01*
X183316619Y-74263619D01*
X183316619Y-74501714D01*
X183364238Y-74596952D01*
X183411857Y-74644571D01*
X184316619Y-73787428D02*
X183316619Y-73454095D01*
X184316619Y-73120761D01*
X188745857Y-97559761D02*
X188603000Y-97607380D01*
X188364905Y-97607380D01*
X188269666Y-97559761D01*
X188222047Y-97512142D01*
X188174428Y-97416904D01*
X188174428Y-97321666D01*
X188222047Y-97226428D01*
X188269666Y-97178809D01*
X188364905Y-97131190D01*
X188555381Y-97083571D01*
X188650619Y-97035952D01*
X188698238Y-96988333D01*
X188745857Y-96893095D01*
X188745857Y-96797857D01*
X188698238Y-96702619D01*
X188650619Y-96655000D01*
X188555381Y-96607380D01*
X188317285Y-96607380D01*
X188174428Y-96655000D01*
X187745857Y-97083571D02*
X187412524Y-97083571D01*
X187269666Y-97607380D02*
X187745857Y-97607380D01*
X187745857Y-96607380D01*
X187269666Y-96607380D01*
X186269666Y-97607380D02*
X186603000Y-97131190D01*
X186841095Y-97607380D02*
X186841095Y-96607380D01*
X186460143Y-96607380D01*
X186364905Y-96655000D01*
X186317285Y-96702619D01*
X186269666Y-96797857D01*
X186269666Y-96940714D01*
X186317285Y-97035952D01*
X186364905Y-97083571D01*
X186460143Y-97131190D01*
X186841095Y-97131190D01*
X186079190Y-97702619D02*
X185317285Y-97702619D01*
X185079190Y-97607380D02*
X185079190Y-96607380D01*
X184603000Y-97607380D02*
X184603000Y-96607380D01*
X184031571Y-97607380D01*
X184031571Y-96607380D01*
X188023429Y-87422380D02*
X188356762Y-86946190D01*
X188594857Y-87422380D02*
X188594857Y-86422380D01*
X188213905Y-86422380D01*
X188118667Y-86470000D01*
X188071048Y-86517619D01*
X188023429Y-86612857D01*
X188023429Y-86755714D01*
X188071048Y-86850952D01*
X188118667Y-86898571D01*
X188213905Y-86946190D01*
X188594857Y-86946190D01*
X187023429Y-87327142D02*
X187071048Y-87374761D01*
X187213905Y-87422380D01*
X187309143Y-87422380D01*
X187452000Y-87374761D01*
X187547238Y-87279523D01*
X187594857Y-87184285D01*
X187642476Y-86993809D01*
X187642476Y-86850952D01*
X187594857Y-86660476D01*
X187547238Y-86565238D01*
X187452000Y-86470000D01*
X187309143Y-86422380D01*
X187213905Y-86422380D01*
X187071048Y-86470000D01*
X187023429Y-86517619D01*
X186118667Y-87422380D02*
X186594857Y-87422380D01*
X186594857Y-86422380D01*
X185785333Y-87422380D02*
X185785333Y-86422380D01*
X185213905Y-87422380D02*
X185642476Y-86850952D01*
X185213905Y-86422380D02*
X185785333Y-86993809D01*
X146296000Y-80898571D02*
X146343619Y-80993809D01*
X146343619Y-81136666D01*
X146296000Y-81279523D01*
X146200761Y-81374761D01*
X146105523Y-81422380D01*
X145915047Y-81470000D01*
X145772190Y-81470000D01*
X145581714Y-81422380D01*
X145486476Y-81374761D01*
X145391238Y-81279523D01*
X145343619Y-81136666D01*
X145343619Y-81041428D01*
X145391238Y-80898571D01*
X145438857Y-80850952D01*
X145772190Y-80850952D01*
X145772190Y-81041428D01*
X145343619Y-80422380D02*
X146343619Y-80422380D01*
X145343619Y-79850952D01*
X146343619Y-79850952D01*
X145343619Y-79374761D02*
X146343619Y-79374761D01*
X146343619Y-79136666D01*
X146296000Y-78993809D01*
X146200761Y-78898571D01*
X146105523Y-78850952D01*
X145915047Y-78803333D01*
X145772190Y-78803333D01*
X145581714Y-78850952D01*
X145486476Y-78898571D01*
X145391238Y-78993809D01*
X145343619Y-79136666D01*
X145343619Y-79374761D01*
X145724571Y-76089047D02*
X145724571Y-75327142D01*
X145343619Y-75708095D02*
X146105523Y-75708095D01*
X146343619Y-74374761D02*
X146343619Y-74850952D01*
X145867428Y-74898571D01*
X145915047Y-74850952D01*
X145962666Y-74755714D01*
X145962666Y-74517619D01*
X145915047Y-74422380D01*
X145867428Y-74374761D01*
X145772190Y-74327142D01*
X145534095Y-74327142D01*
X145438857Y-74374761D01*
X145391238Y-74422380D01*
X145343619Y-74517619D01*
X145343619Y-74755714D01*
X145391238Y-74850952D01*
X145438857Y-74898571D01*
X146343619Y-74041428D02*
X145343619Y-73708095D01*
X146343619Y-73374761D01*
X147065619Y-97559761D02*
X146922761Y-97607380D01*
X146684666Y-97607380D01*
X146589428Y-97559761D01*
X146541809Y-97512142D01*
X146494190Y-97416904D01*
X146494190Y-97321666D01*
X146541809Y-97226428D01*
X146589428Y-97178809D01*
X146684666Y-97131190D01*
X146875142Y-97083571D01*
X146970380Y-97035952D01*
X147018000Y-96988333D01*
X147065619Y-96893095D01*
X147065619Y-96797857D01*
X147018000Y-96702619D01*
X146970380Y-96655000D01*
X146875142Y-96607380D01*
X146637047Y-96607380D01*
X146494190Y-96655000D01*
X146065619Y-97083571D02*
X145732285Y-97083571D01*
X145589428Y-97607380D02*
X146065619Y-97607380D01*
X146065619Y-96607380D01*
X145589428Y-96607380D01*
X144589428Y-97607380D02*
X144922761Y-97131190D01*
X145160857Y-97607380D02*
X145160857Y-96607380D01*
X144779904Y-96607380D01*
X144684666Y-96655000D01*
X144637047Y-96702619D01*
X144589428Y-96797857D01*
X144589428Y-96940714D01*
X144637047Y-97035952D01*
X144684666Y-97083571D01*
X144779904Y-97131190D01*
X145160857Y-97131190D01*
X144398952Y-97702619D02*
X143637047Y-97702619D01*
X143208476Y-96607380D02*
X143018000Y-96607380D01*
X142922761Y-96655000D01*
X142827523Y-96750238D01*
X142779904Y-96940714D01*
X142779904Y-97274047D01*
X142827523Y-97464523D01*
X142922761Y-97559761D01*
X143018000Y-97607380D01*
X143208476Y-97607380D01*
X143303714Y-97559761D01*
X143398952Y-97464523D01*
X143446571Y-97274047D01*
X143446571Y-96940714D01*
X143398952Y-96750238D01*
X143303714Y-96655000D01*
X143208476Y-96607380D01*
X142351333Y-96607380D02*
X142351333Y-97416904D01*
X142303714Y-97512142D01*
X142256095Y-97559761D01*
X142160857Y-97607380D01*
X141970380Y-97607380D01*
X141875142Y-97559761D01*
X141827523Y-97512142D01*
X141779904Y-97416904D01*
X141779904Y-96607380D01*
X141446571Y-96607380D02*
X140875142Y-96607380D01*
X141160857Y-97607380D02*
X141160857Y-96607380D01*
X188642476Y-92352761D02*
X188499619Y-92400380D01*
X188261523Y-92400380D01*
X188166285Y-92352761D01*
X188118666Y-92305142D01*
X188071047Y-92209904D01*
X188071047Y-92114666D01*
X188118666Y-92019428D01*
X188166285Y-91971809D01*
X188261523Y-91924190D01*
X188452000Y-91876571D01*
X188547238Y-91828952D01*
X188594857Y-91781333D01*
X188642476Y-91686095D01*
X188642476Y-91590857D01*
X188594857Y-91495619D01*
X188547238Y-91448000D01*
X188452000Y-91400380D01*
X188213904Y-91400380D01*
X188071047Y-91448000D01*
X187071047Y-92400380D02*
X187404381Y-91924190D01*
X187642476Y-92400380D02*
X187642476Y-91400380D01*
X187261523Y-91400380D01*
X187166285Y-91448000D01*
X187118666Y-91495619D01*
X187071047Y-91590857D01*
X187071047Y-91733714D01*
X187118666Y-91828952D01*
X187166285Y-91876571D01*
X187261523Y-91924190D01*
X187642476Y-91924190D01*
X186071047Y-92305142D02*
X186118666Y-92352761D01*
X186261523Y-92400380D01*
X186356762Y-92400380D01*
X186499619Y-92352761D01*
X186594857Y-92257523D01*
X186642476Y-92162285D01*
X186690095Y-91971809D01*
X186690095Y-91828952D01*
X186642476Y-91638476D01*
X186594857Y-91543238D01*
X186499619Y-91448000D01*
X186356762Y-91400380D01*
X186261523Y-91400380D01*
X186118666Y-91448000D01*
X186071047Y-91495619D01*
X185642476Y-92400380D02*
X185642476Y-91400380D01*
X185071047Y-92400380D02*
X185499619Y-91828952D01*
X185071047Y-91400380D02*
X185642476Y-91971809D01*
M02*
