%TF.GenerationSoftware,KiCad,Pcbnew,(6.0.4-0)*%
%TF.CreationDate,2022-03-28T19:53:30+01:00*%
%TF.ProjectId,DecimalPlace,44656369-6d61-46c5-906c-6163652e6b69,rev?*%
%TF.SameCoordinates,Original*%
%TF.FileFunction,Legend,Top*%
%TF.FilePolarity,Positive*%
%FSLAX46Y46*%
G04 Gerber Fmt 4.6, Leading zero omitted, Abs format (unit mm)*
G04 Created by KiCad (PCBNEW (6.0.4-0)) date 2022-03-28 19:53:30*
%MOMM*%
%LPD*%
G01*
G04 APERTURE LIST*
%ADD10C,0.150000*%
%ADD11C,0.120000*%
G04 APERTURE END LIST*
D10*
X157480047Y-151201428D02*
X158241952Y-151201428D01*
X157480047Y-148407428D02*
X158241952Y-148407428D01*
X157861000Y-148788380D02*
X157861000Y-148026476D01*
%TO.C,D1*%
X198731380Y-52521095D02*
X197731380Y-52521095D01*
X197731380Y-52283000D01*
X197779000Y-52140142D01*
X197874238Y-52044904D01*
X197969476Y-51997285D01*
X198159952Y-51949666D01*
X198302809Y-51949666D01*
X198493285Y-51997285D01*
X198588523Y-52044904D01*
X198683761Y-52140142D01*
X198731380Y-52283000D01*
X198731380Y-52521095D01*
X198731380Y-50997285D02*
X198731380Y-51568714D01*
X198731380Y-51283000D02*
X197731380Y-51283000D01*
X197874238Y-51378238D01*
X197969476Y-51473476D01*
X198017095Y-51568714D01*
D11*
%TO.C,J1*%
X160273000Y-149446000D02*
X160273000Y-149833071D01*
X159513000Y-149446000D02*
X159513000Y-149833071D01*
X161163000Y-147066000D02*
X161163000Y-148336000D01*
X159893000Y-147066000D02*
X161163000Y-147066000D01*
%TO.C,D1*%
X199279000Y-51583000D02*
X199279000Y-52783000D01*
X201279000Y-51583000D02*
X201279000Y-52783000D01*
X201279000Y-52783000D02*
X200879000Y-52783000D01*
X199279000Y-52783000D02*
X199679000Y-52783000D01*
%TD*%
M02*
